<?xml version="1.0" encoding="UTF-8" standalone="no"?>
<!DOCTYPE svg PUBLIC "-//W3C//DTD SVG 1.1//EN"
 "http://www.w3.org/Graphics/SVG/1.1/DTD/svg11.dtd">
<!-- Generated by graphviz version 2.47.0 (20210316.0004)
 -->
<!-- Title: dependencies Pages: 1 -->
<svg width="1658pt" height="284pt"
 viewBox="0.00 0.00 1658.00 284.00" xmlns="http://www.w3.org/2000/svg" xmlns:xlink="http://www.w3.org/1999/xlink">
<g id="graph0" class="graph" transform="scale(1 1) rotate(0) translate(4 280)">
<title>dependencies</title>
<polygon fill="white" stroke="transparent" points="-4,4 -4,-280 1654,-280 1654,4 -4,4"/>
<text text-anchor="start" x="804.01" y="-42.4" font-family="Times-12" font-weight="bold" font-size="14.00">Legend</text>
<polygon fill="#ffffb3" stroke="transparent" points="591,-10 591,-30 611,-30 611,-10 591,-10"/>
<text text-anchor="start" x="614.63" y="-15.4" font-family="Times-12" font-size="14.00"> &#160;Declarations</text>
<polygon fill="#8dd3c7" stroke="transparent" points="704,-10 704,-30 724,-30 724,-10 704,-10"/>
<text text-anchor="start" x="727.73" y="-15.4" font-family="Times-12" font-size="14.00"> &#160;Module</text>
<polygon fill="#80b1d3" stroke="transparent" points="790,-10 790,-30 810,-30 810,-10 790,-10"/>
<text text-anchor="start" x="813.78" y="-15.4" font-family="Times-12" font-size="14.00"> &#160;Bootstrap</text>
<polygon fill="#fdb462" stroke="transparent" points="887,-10 887,-30 907,-30 907,-10 887,-10"/>
<text text-anchor="start" x="910.67" y="-15.4" font-family="Times-12" font-size="14.00"> &#160;Providers</text>
<polygon fill="#fb8072" stroke="transparent" points="983,-10 983,-30 1003,-30 1003,-10 983,-10"/>
<text text-anchor="start" x="1006.73" y="-15.4" font-family="Times-12" font-size="14.00"> &#160;Exports</text>
<g id="clust1" class="cluster">
<title>cluster_AppModule</title>
<polygon fill="none" stroke="black" stroke-dasharray="1,5" points="8,-70 8,-268 1642,-268 1642,-70 8,-70"/>
</g>
<g id="clust2" class="cluster">
<title>cluster_AppModule_declarations</title>
<polygon fill="none" stroke="black" points="168,-78 168,-130 1634,-130 1634,-78 168,-78"/>
</g>
<g id="clust13" class="cluster">
<title>cluster_AppModule_imports</title>
<polygon fill="none" stroke="black" points="16,-78 16,-130 160,-130 160,-78 16,-78"/>
</g>
<g id="clust15" class="cluster">
<title>cluster_AppModule_bootstrap</title>
<polygon fill="none" stroke="black" points="745,-208 745,-260 869,-260 869,-208 745,-208"/>
</g>
<!-- AboutComponent -->
<g id="node1" class="node">
<title>AboutComponent</title>
<polygon fill="#ffffb3" stroke="black" points="1626.33,-122 1509.67,-122 1509.67,-86 1626.33,-86 1626.33,-122"/>
<text text-anchor="middle" x="1568" y="-99.8" font-family="Times,serif" font-size="14.00">AboutComponent</text>
</g>
<!-- AppModule -->
<g id="node11" class="node">
<title>AppModule</title>
<polygon fill="#8dd3c7" stroke="black" points="848.66,-187 845.66,-191 824.66,-191 821.66,-187 765.34,-187 765.34,-151 848.66,-151 848.66,-187"/>
<text text-anchor="middle" x="807" y="-164.8" font-family="Times,serif" font-size="14.00">AppModule</text>
</g>
<!-- AboutComponent&#45;&gt;AppModule -->
<g id="edge1" class="edge">
<title>AboutComponent&#45;&gt;AppModule</title>
<path fill="none" stroke="black" d="M1568,-122.25C1568,-145.02 1568,-181 1568,-181 1568,-181 858.73,-181 858.73,-181"/>
<polygon fill="black" stroke="black" points="858.73,-177.5 848.73,-181 858.73,-184.5 858.73,-177.5"/>
</g>
<!-- AchievementsComponent -->
<g id="node2" class="node">
<title>AchievementsComponent</title>
<polygon fill="#ffffb3" stroke="black" points="1491.91,-122 1330.09,-122 1330.09,-86 1491.91,-86 1491.91,-122"/>
<text text-anchor="middle" x="1411" y="-99.8" font-family="Times,serif" font-size="14.00">AchievementsComponent</text>
</g>
<!-- AchievementsComponent&#45;&gt;AppModule -->
<g id="edge2" class="edge">
<title>AchievementsComponent&#45;&gt;AppModule</title>
<path fill="none" stroke="black" d="M1411,-122.28C1411,-143.32 1411,-175 1411,-175 1411,-175 858.99,-175 858.99,-175"/>
<polygon fill="black" stroke="black" points="858.99,-171.5 848.99,-175 858.99,-178.5 858.99,-171.5"/>
</g>
<!-- AppComponent -->
<g id="node3" class="node">
<title>AppComponent</title>
<polygon fill="#ffffb3" stroke="black" points="1312.94,-122 1207.06,-122 1207.06,-86 1312.94,-86 1312.94,-122"/>
<text text-anchor="middle" x="1260" y="-99.8" font-family="Times,serif" font-size="14.00">AppComponent</text>
</g>
<!-- AppComponent&#45;&gt;AppModule -->
<g id="edge3" class="edge">
<title>AppComponent&#45;&gt;AppModule</title>
<path fill="none" stroke="black" d="M1260,-122.11C1260,-141.34 1260,-169 1260,-169 1260,-169 858.81,-169 858.81,-169"/>
<polygon fill="black" stroke="black" points="858.81,-165.5 848.81,-169 858.81,-172.5 858.81,-165.5"/>
</g>
<!-- AptitudesComponent -->
<g id="node4" class="node">
<title>AptitudesComponent</title>
<polygon fill="#ffffb3" stroke="black" points="1188.77,-122 1053.23,-122 1053.23,-86 1188.77,-86 1188.77,-122"/>
<text text-anchor="middle" x="1121" y="-99.8" font-family="Times,serif" font-size="14.00">AptitudesComponent</text>
</g>
<!-- AptitudesComponent&#45;&gt;AppModule -->
<g id="edge4" class="edge">
<title>AptitudesComponent&#45;&gt;AppModule</title>
<path fill="none" stroke="black" d="M1121,-122.02C1121,-139.37 1121,-163 1121,-163 1121,-163 858.7,-163 858.7,-163"/>
<polygon fill="black" stroke="black" points="858.7,-159.5 848.7,-163 858.7,-166.5 858.7,-159.5"/>
</g>
<!-- EducationComponent -->
<g id="node5" class="node">
<title>EducationComponent</title>
<polygon fill="#ffffb3" stroke="black" points="1035.1,-122 896.9,-122 896.9,-86 1035.1,-86 1035.1,-122"/>
<text text-anchor="middle" x="966" y="-99.8" font-family="Times,serif" font-size="14.00">EducationComponent</text>
</g>
<!-- EducationComponent&#45;&gt;AppModule -->
<g id="edge5" class="edge">
<title>EducationComponent&#45;&gt;AppModule</title>
<path fill="none" stroke="black" d="M966,-122.24C966,-137.57 966,-157 966,-157 966,-157 858.78,-157 858.78,-157"/>
<polygon fill="black" stroke="black" points="858.78,-153.5 848.78,-157 858.78,-160.5 858.78,-153.5"/>
</g>
<!-- ExperienceComponent -->
<g id="node6" class="node">
<title>ExperienceComponent</title>
<polygon fill="#ffffb3" stroke="black" points="879.29,-122 734.71,-122 734.71,-86 879.29,-86 879.29,-122"/>
<text text-anchor="middle" x="807" y="-99.8" font-family="Times,serif" font-size="14.00">ExperienceComponent</text>
</g>
<!-- ExperienceComponent&#45;&gt;AppModule -->
<g id="edge6" class="edge">
<title>ExperienceComponent&#45;&gt;AppModule</title>
<path fill="none" stroke="black" d="M807,-122.11C807,-122.11 807,-140.99 807,-140.99"/>
<polygon fill="black" stroke="black" points="803.5,-140.99 807,-150.99 810.5,-140.99 803.5,-140.99"/>
</g>
<!-- HomeComponent -->
<g id="node7" class="node">
<title>HomeComponent</title>
<polygon fill="#ffffb3" stroke="black" points="716.55,-122 601.45,-122 601.45,-86 716.55,-86 716.55,-122"/>
<text text-anchor="middle" x="659" y="-99.8" font-family="Times,serif" font-size="14.00">HomeComponent</text>
</g>
<!-- HomeComponent&#45;&gt;AppModule -->
<g id="edge7" class="edge">
<title>HomeComponent&#45;&gt;AppModule</title>
<path fill="none" stroke="black" d="M659,-122.24C659,-137.57 659,-157 659,-157 659,-157 754.99,-157 754.99,-157"/>
<polygon fill="black" stroke="black" points="754.99,-160.5 764.99,-157 754.98,-153.5 754.99,-160.5"/>
</g>
<!-- NotFoundComponent -->
<g id="node8" class="node">
<title>NotFoundComponent</title>
<polygon fill="#ffffb3" stroke="black" points="583.11,-122 444.89,-122 444.89,-86 583.11,-86 583.11,-122"/>
<text text-anchor="middle" x="514" y="-99.8" font-family="Times,serif" font-size="14.00">NotFoundComponent</text>
</g>
<!-- NotFoundComponent&#45;&gt;AppModule -->
<g id="edge8" class="edge">
<title>NotFoundComponent&#45;&gt;AppModule</title>
<path fill="none" stroke="black" d="M514,-122.02C514,-139.37 514,-163 514,-163 514,-163 755.33,-163 755.33,-163"/>
<polygon fill="black" stroke="black" points="755.33,-166.5 765.33,-163 755.33,-159.5 755.33,-166.5"/>
</g>
<!-- PersonComponent -->
<g id="node9" class="node">
<title>PersonComponent</title>
<polygon fill="#ffffb3" stroke="black" points="426.94,-122 307.06,-122 307.06,-86 426.94,-86 426.94,-122"/>
<text text-anchor="middle" x="367" y="-99.8" font-family="Times,serif" font-size="14.00">PersonComponent</text>
</g>
<!-- PersonComponent&#45;&gt;AppModule -->
<g id="edge9" class="edge">
<title>PersonComponent&#45;&gt;AppModule</title>
<path fill="none" stroke="black" d="M367,-122.11C367,-141.34 367,-169 367,-169 367,-169 755.21,-169 755.21,-169"/>
<polygon fill="black" stroke="black" points="755.21,-172.5 765.21,-169 755.21,-165.5 755.21,-172.5"/>
</g>
<!-- SkillsComponent -->
<g id="node10" class="node">
<title>SkillsComponent</title>
<polygon fill="#ffffb3" stroke="black" points="289.73,-122 176.27,-122 176.27,-86 289.73,-86 289.73,-122"/>
<text text-anchor="middle" x="233" y="-99.8" font-family="Times,serif" font-size="14.00">SkillsComponent</text>
</g>
<!-- SkillsComponent&#45;&gt;AppModule -->
<g id="edge10" class="edge">
<title>SkillsComponent&#45;&gt;AppModule</title>
<path fill="none" stroke="black" d="M233,-122.28C233,-143.32 233,-175 233,-175 233,-175 755.26,-175 755.26,-175"/>
<polygon fill="black" stroke="black" points="755.26,-178.5 765.26,-175 755.26,-171.5 755.26,-178.5"/>
</g>
<!-- AppComponent  -->
<g id="node13" class="node">
<title>AppComponent </title>
<polygon fill="#80b1d3" stroke="black" points="861.44,-252 752.56,-252 752.56,-216 861.44,-216 861.44,-252"/>
<text text-anchor="middle" x="807" y="-229.8" font-family="Times,serif" font-size="14.00">AppComponent </text>
</g>
<!-- AppModule&#45;&gt;AppComponent  -->
<g id="edge12" class="edge">
<title>AppModule&#45;&gt;AppComponent </title>
<path fill="none" stroke="black" stroke-dasharray="1,5" d="M807,-187.11C807,-187.11 807,-205.99 807,-205.99"/>
<polygon fill="black" stroke="black" points="803.5,-205.99 807,-215.99 810.5,-205.99 803.5,-205.99"/>
</g>
<!-- AppRoutingModule -->
<g id="node12" class="node">
<title>AppRoutingModule</title>
<polygon fill="#8dd3c7" stroke="black" points="152.27,-122 149.27,-126 128.27,-126 125.27,-122 23.73,-122 23.73,-86 152.27,-86 152.27,-122"/>
<text text-anchor="middle" x="88" y="-99.8" font-family="Times,serif" font-size="14.00">AppRoutingModule</text>
</g>
<!-- AppRoutingModule&#45;&gt;AppModule -->
<g id="edge11" class="edge">
<title>AppRoutingModule&#45;&gt;AppModule</title>
<path fill="none" stroke="black" d="M88,-122.25C88,-145.02 88,-181 88,-181 88,-181 755.24,-181 755.24,-181"/>
<polygon fill="black" stroke="black" points="755.24,-184.5 765.24,-181 755.24,-177.5 755.24,-184.5"/>
</g>
</g>
</svg>
