<?xml version="1.0" encoding="UTF-8" standalone="no"?>
<!DOCTYPE svg PUBLIC "-//W3C//DTD SVG 1.1//EN"
 "http://www.w3.org/Graphics/SVG/1.1/DTD/svg11.dtd">
<!-- Generated by graphviz version 2.47.0 (20210316.0004)
 -->
<!-- Title: dependencies Pages: 1 -->
<svg width="1658pt" height="284pt"
 viewBox="0.00 0.00 1658.00 284.00" xmlns="http://www.w3.org/2000/svg" xmlns:xlink="http://www.w3.org/1999/xlink">
<g id="graph0" class="graph" transform="scale(1 1) rotate(0) translate(4 280)">
<title>dependencies</title>
<polygon fill="white" stroke="transparent" points="-4,4 -4,-280 1654,-280 1654,4 -4,4"/>
<text text-anchor="start" x="804.01" y="-42.4" font-family="Times-12" font-weight="bold" font-size="14.00">Legend</text>
<polygon fill="#ffffb3" stroke="transparent" points="591,-10 591,-30 611,-30 611,-10 591,-10"/>
<text text-anchor="start" x="614.63" y="-15.4" font-family="Times-12" font-size="14.00"> &#160;Declarations</text>
<polygon fill="#8dd3c7" stroke="transparent" points="704,-10 704,-30 724,-30 724,-10 704,-10"/>
<text text-anchor="start" x="727.73" y="-15.4" font-family="Times-12" font-size="14.00"> &#160;Module</text>
<polygon fill="#80b1d3" stroke="transparent" points="790,-10 790,-30 810,-30 810,-10 790,-10"/>
<text text-anchor="start" x="813.78" y="-15.4" font-family="Times-12" font-size="14.00"> &#160;Bootstrap</text>
<polygon fill="#fdb462" stroke="transparent" points="887,-10 887,-30 907,-30 907,-10 887,-10"/>
<text text-anchor="start" x="910.67" y="-15.4" font-family="Times-12" font-size="14.00"> &#160;Providers</text>
<polygon fill="#fb8072" stroke="transparent" points="983,-10 983,-30 1003,-30 1003,-10 983,-10"/>
<text text-anchor="start" x="1006.73" y="-15.4" font-family="Times-12" font-size="14.00"> &#160;Exports</text>
<g id="clust1" class="cluster">
<title>cluster_AppModule</title>
<polygon fill="none" stroke="black" stroke-dasharray="1,5" points="8,-70 8,-268 1642,-268 1642,-70 8,-70"/>
</g>
<g id="clust15" class="cluster">
<title>cluster_AppModule_bootstrap</title>
<polygon fill="none" stroke="black" points="752,-208 752,-260 876,-260 876,-208 752,-208"/>
</g>
<g id="clust13" class="cluster">
<title>cluster_AppModule_imports</title>
<polygon fill="none" stroke="black" points="1490,-78 1490,-130 1634,-130 1634,-78 1490,-78"/>
</g>
<g id="clust2" class="cluster">
<title>cluster_AppModule_declarations</title>
<polygon fill="none" stroke="black" points="16,-78 16,-130 1482,-130 1482,-78 16,-78"/>
</g>
<!-- AboutComponent -->
<g id="node1" class="node">
<title>AboutComponent</title>
<polygon fill="#ffffb3" stroke="black" points="1474.33,-122 1357.67,-122 1357.67,-86 1474.33,-86 1474.33,-122"/>
<text text-anchor="middle" x="1416" y="-99.8" font-family="Times,serif" font-size="14.00">AboutComponent</text>
</g>
<!-- AppModule -->
<g id="node11" class="node">
<title>AppModule</title>
<polygon fill="#8dd3c7" stroke="black" points="855.66,-187 852.66,-191 831.66,-191 828.66,-187 772.34,-187 772.34,-151 855.66,-151 855.66,-187"/>
<text text-anchor="middle" x="814" y="-164.8" font-family="Times,serif" font-size="14.00">AppModule</text>
</g>
<!-- AboutComponent&#45;&gt;AppModule -->
<g id="edge1" class="edge">
<title>AboutComponent&#45;&gt;AppModule</title>
<path fill="none" stroke="black" d="M1416,-122.28C1416,-143.32 1416,-175 1416,-175 1416,-175 865.85,-175 865.85,-175"/>
<polygon fill="black" stroke="black" points="865.85,-171.5 855.85,-175 865.85,-178.5 865.85,-171.5"/>
</g>
<!-- AchievementsComponent -->
<g id="node2" class="node">
<title>AchievementsComponent</title>
<polygon fill="#ffffb3" stroke="black" points="1339.91,-122 1178.09,-122 1178.09,-86 1339.91,-86 1339.91,-122"/>
<text text-anchor="middle" x="1259" y="-99.8" font-family="Times,serif" font-size="14.00">AchievementsComponent</text>
</g>
<!-- AchievementsComponent&#45;&gt;AppModule -->
<g id="edge2" class="edge">
<title>AchievementsComponent&#45;&gt;AppModule</title>
<path fill="none" stroke="black" d="M1259,-122.11C1259,-141.34 1259,-169 1259,-169 1259,-169 865.86,-169 865.86,-169"/>
<polygon fill="black" stroke="black" points="865.86,-165.5 855.86,-169 865.86,-172.5 865.86,-165.5"/>
</g>
<!-- AppComponent -->
<g id="node3" class="node">
<title>AppComponent</title>
<polygon fill="#ffffb3" stroke="black" points="1160.94,-122 1055.06,-122 1055.06,-86 1160.94,-86 1160.94,-122"/>
<text text-anchor="middle" x="1108" y="-99.8" font-family="Times,serif" font-size="14.00">AppComponent</text>
</g>
<!-- AppComponent&#45;&gt;AppModule -->
<g id="edge3" class="edge">
<title>AppComponent&#45;&gt;AppModule</title>
<path fill="none" stroke="black" d="M1108,-122.02C1108,-139.37 1108,-163 1108,-163 1108,-163 865.81,-163 865.81,-163"/>
<polygon fill="black" stroke="black" points="865.81,-159.5 855.81,-163 865.81,-166.5 865.81,-159.5"/>
</g>
<!-- AptitudesComponent -->
<g id="node4" class="node">
<title>AptitudesComponent</title>
<polygon fill="#ffffb3" stroke="black" points="1036.77,-122 901.23,-122 901.23,-86 1036.77,-86 1036.77,-122"/>
<text text-anchor="middle" x="969" y="-99.8" font-family="Times,serif" font-size="14.00">AptitudesComponent</text>
</g>
<!-- AptitudesComponent&#45;&gt;AppModule -->
<g id="edge4" class="edge">
<title>AptitudesComponent&#45;&gt;AppModule</title>
<path fill="none" stroke="black" d="M969,-122.24C969,-137.57 969,-157 969,-157 969,-157 865.95,-157 865.95,-157"/>
<polygon fill="black" stroke="black" points="865.95,-153.5 855.95,-157 865.95,-160.5 865.95,-153.5"/>
</g>
<!-- EducationComponent -->
<g id="node5" class="node">
<title>EducationComponent</title>
<polygon fill="#ffffb3" stroke="black" points="883.1,-122 744.9,-122 744.9,-86 883.1,-86 883.1,-122"/>
<text text-anchor="middle" x="814" y="-99.8" font-family="Times,serif" font-size="14.00">EducationComponent</text>
</g>
<!-- EducationComponent&#45;&gt;AppModule -->
<g id="edge5" class="edge">
<title>EducationComponent&#45;&gt;AppModule</title>
<path fill="none" stroke="black" d="M814,-122.11C814,-122.11 814,-140.99 814,-140.99"/>
<polygon fill="black" stroke="black" points="810.5,-140.99 814,-150.99 817.5,-140.99 810.5,-140.99"/>
</g>
<!-- ExperienceComponent -->
<g id="node6" class="node">
<title>ExperienceComponent</title>
<polygon fill="#ffffb3" stroke="black" points="727.29,-122 582.71,-122 582.71,-86 727.29,-86 727.29,-122"/>
<text text-anchor="middle" x="655" y="-99.8" font-family="Times,serif" font-size="14.00">ExperienceComponent</text>
</g>
<!-- ExperienceComponent&#45;&gt;AppModule -->
<g id="edge6" class="edge">
<title>ExperienceComponent&#45;&gt;AppModule</title>
<path fill="none" stroke="black" d="M655,-122.24C655,-137.57 655,-157 655,-157 655,-157 762.22,-157 762.22,-157"/>
<polygon fill="black" stroke="black" points="762.22,-160.5 772.22,-157 762.22,-153.5 762.22,-160.5"/>
</g>
<!-- HomeComponent -->
<g id="node7" class="node">
<title>HomeComponent</title>
<polygon fill="#ffffb3" stroke="black" points="564.55,-122 449.45,-122 449.45,-86 564.55,-86 564.55,-122"/>
<text text-anchor="middle" x="507" y="-99.8" font-family="Times,serif" font-size="14.00">HomeComponent</text>
</g>
<!-- HomeComponent&#45;&gt;AppModule -->
<g id="edge7" class="edge">
<title>HomeComponent&#45;&gt;AppModule</title>
<path fill="none" stroke="black" d="M507,-122.02C507,-139.37 507,-163 507,-163 507,-163 762.28,-163 762.28,-163"/>
<polygon fill="black" stroke="black" points="762.28,-166.5 772.28,-163 762.28,-159.5 762.28,-166.5"/>
</g>
<!-- NotFoundComponent -->
<g id="node8" class="node">
<title>NotFoundComponent</title>
<polygon fill="#ffffb3" stroke="black" points="431.11,-122 292.89,-122 292.89,-86 431.11,-86 431.11,-122"/>
<text text-anchor="middle" x="362" y="-99.8" font-family="Times,serif" font-size="14.00">NotFoundComponent</text>
</g>
<!-- NotFoundComponent&#45;&gt;AppModule -->
<g id="edge8" class="edge">
<title>NotFoundComponent&#45;&gt;AppModule</title>
<path fill="none" stroke="black" d="M362,-122.11C362,-141.34 362,-169 362,-169 362,-169 762.29,-169 762.29,-169"/>
<polygon fill="black" stroke="black" points="762.29,-172.5 772.29,-169 762.29,-165.5 762.29,-172.5"/>
</g>
<!-- PersonComponent -->
<g id="node9" class="node">
<title>PersonComponent</title>
<polygon fill="#ffffb3" stroke="black" points="274.94,-122 155.06,-122 155.06,-86 274.94,-86 274.94,-122"/>
<text text-anchor="middle" x="215" y="-99.8" font-family="Times,serif" font-size="14.00">PersonComponent</text>
</g>
<!-- PersonComponent&#45;&gt;AppModule -->
<g id="edge9" class="edge">
<title>PersonComponent&#45;&gt;AppModule</title>
<path fill="none" stroke="black" d="M215,-122.28C215,-143.32 215,-175 215,-175 215,-175 761.88,-175 761.88,-175"/>
<polygon fill="black" stroke="black" points="761.88,-178.5 771.88,-175 761.88,-171.5 761.88,-178.5"/>
</g>
<!-- SkillsComponent -->
<g id="node10" class="node">
<title>SkillsComponent</title>
<polygon fill="#ffffb3" stroke="black" points="137.73,-122 24.27,-122 24.27,-86 137.73,-86 137.73,-122"/>
<text text-anchor="middle" x="81" y="-99.8" font-family="Times,serif" font-size="14.00">SkillsComponent</text>
</g>
<!-- SkillsComponent&#45;&gt;AppModule -->
<g id="edge10" class="edge">
<title>SkillsComponent&#45;&gt;AppModule</title>
<path fill="none" stroke="black" d="M81,-122.25C81,-145.02 81,-181 81,-181 81,-181 762.22,-181 762.22,-181"/>
<polygon fill="black" stroke="black" points="762.22,-184.5 772.22,-181 762.22,-177.5 762.22,-184.5"/>
</g>
<!-- AppComponent  -->
<g id="node13" class="node">
<title>AppComponent </title>
<polygon fill="#80b1d3" stroke="black" points="868.44,-252 759.56,-252 759.56,-216 868.44,-216 868.44,-252"/>
<text text-anchor="middle" x="814" y="-229.8" font-family="Times,serif" font-size="14.00">AppComponent </text>
</g>
<!-- AppModule&#45;&gt;AppComponent  -->
<g id="edge12" class="edge">
<title>AppModule&#45;&gt;AppComponent </title>
<path fill="none" stroke="black" stroke-dasharray="1,5" d="M814,-187.11C814,-187.11 814,-205.99 814,-205.99"/>
<polygon fill="black" stroke="black" points="810.5,-205.99 814,-215.99 817.5,-205.99 810.5,-205.99"/>
</g>
<!-- AppRoutingModule -->
<g id="node12" class="node">
<title>AppRoutingModule</title>
<polygon fill="#8dd3c7" stroke="black" points="1626.27,-122 1623.27,-126 1602.27,-126 1599.27,-122 1497.73,-122 1497.73,-86 1626.27,-86 1626.27,-122"/>
<text text-anchor="middle" x="1562" y="-99.8" font-family="Times,serif" font-size="14.00">AppRoutingModule</text>
</g>
<!-- AppRoutingModule&#45;&gt;AppModule -->
<g id="edge11" class="edge">
<title>AppRoutingModule&#45;&gt;AppModule</title>
<path fill="none" stroke="black" d="M1562,-122.25C1562,-145.02 1562,-181 1562,-181 1562,-181 865.82,-181 865.82,-181"/>
<polygon fill="black" stroke="black" points="865.82,-177.5 855.82,-181 865.82,-184.5 865.82,-177.5"/>
</g>
</g>
</svg>
